<?xml version="1.0" standalone="no"?>
<!DOCTYPE svg PUBLIC "-//W3C//DTD SVG 20010904//EN"
 "http://www.w3.org/TR/2001/REC-SVG-20010904/DTD/svg10.dtd">
<svg version="1.0" xmlns="http://www.w3.org/2000/svg"
 width="1040.000000pt" height="1040.000000pt" viewBox="0 0 1040.000000 1040.000000"
 preserveAspectRatio="xMidYMid meet">
<metadata>
Created by potrace 1.11, written by Peter Selinger 2001-2013
</metadata>
<g transform="translate(0.000000,1040.000000) scale(0.100000,-0.100000)"
fill="#000000" stroke="none">
<path d="M7080 8083 c-14 -2 -42 -11 -63 -20 -31 -13 -43 -14 -58 -5 -29 19
-77 15 -96 -8 -10 -11 -28 -20 -40 -20 -13 0 -41 -11 -64 -25 -22 -14 -44 -23
-49 -20 -5 3 -29 -3 -53 -13 -37 -17 -88 -59 -202 -170 -44 -43 -75 -83 -75
-98 0 -8 -16 -22 -35 -30 -42 -17 -64 -48 -70 -100 -3 -21 -6 -38 -8 -39 -31
-16 -57 -39 -57 -50 0 -8 -11 -22 -25 -31 -26 -17 -58 -77 -53 -99 2 -6 -25
-38 -59 -71 -55 -54 -62 -64 -68 -111 -4 -29 -11 -56 -16 -59 -24 -15 -62
-133 -61 -188 1 -10 -12 -29 -29 -43 -17 -14 -29 -35 -29 -48 0 -13 -4 -27
-10 -30 -5 -3 -10 -14 -10 -24 0 -10 -13 -32 -30 -49 -16 -17 -32 -44 -36 -59
-4 -15 -12 -35 -20 -43 -7 -8 -16 -28 -20 -45 -3 -16 -16 -45 -26 -63 -12 -19
-24 -64 -29 -109 -5 -42 -15 -83 -22 -92 -8 -9 -21 -29 -30 -46 -8 -16 -27
-52 -41 -79 -15 -29 -26 -66 -26 -88 0 -24 -12 -62 -31 -98 -21 -41 -35 -87
-45 -157 -8 -54 -25 -134 -39 -179 -14 -44 -25 -87 -25 -95 0 -9 -3 -19 -7
-23 -4 -3 -8 -12 -9 -19 -1 -7 -7 -39 -13 -71 -6 -33 -11 -92 -11 -132 0 -43
-5 -76 -11 -80 -7 -4 -9 0 -5 14 5 13 1 22 -10 26 -9 3 -14 13 -11 21 4 9 1
12 -9 8 -10 -3 -16 4 -20 26 -4 17 -13 31 -21 31 -8 0 -12 4 -9 8 3 5 -1 9
-10 9 -9 0 -13 -7 -9 -21 3 -12 2 -15 -1 -8 -5 10 -9 9 -20 -5 -13 -17 -14
-17 -7 1 3 11 2 17 -3 14 -5 -4 -9 23 -8 63 1 37 -2 67 -5 64 -4 -2 -7 14 -8
35 -2 44 -26 127 -53 185 -10 22 -33 90 -50 150 -18 61 -36 118 -42 128 -5 10
-16 43 -24 73 -8 30 -27 80 -43 112 -35 70 -65 148 -86 226 -10 35 -27 70 -43
86 -15 15 -42 55 -60 88 -17 34 -36 70 -41 80 -5 9 -22 48 -38 86 -19 48 -41
80 -70 106 -24 21 -43 45 -43 53 0 9 -14 25 -30 37 -25 17 -30 28 -30 60 0 22
-7 56 -16 77 -44 101 -64 141 -79 153 -8 7 -15 16 -15 21 0 14 -71 109 -81
109 -10 0 -35 52 -43 90 -4 21 -65 92 -179 208 -66 67 -145 133 -167 139 -13
3 -40 21 -58 39 -41 40 -126 84 -162 84 -14 0 -42 11 -61 25 -19 14 -42 24
-52 21 -9 -2 -24 2 -32 11 -23 22 -80 28 -106 10 -19 -14 -26 -14 -55 -2 -18
7 -62 16 -98 20 -56 6 -70 5 -86 -10 -11 -10 -30 -19 -44 -20 -42 -5 -65 -16
-71 -34 -6 -21 -66 -51 -103 -51 -16 0 -40 -12 -59 -30 -18 -17 -37 -30 -42
-30 -6 0 -20 -13 -33 -30 -12 -16 -31 -30 -41 -30 -27 0 -155 -131 -162 -167
-11 -48 -26 -70 -69 -101 -27 -19 -52 -50 -68 -84 -15 -31 -39 -60 -56 -70
-32 -19 -62 -72 -62 -108 0 -12 -13 -39 -29 -59 -17 -21 -35 -50 -42 -67 -7
-16 -24 -42 -36 -57 -13 -16 -26 -41 -29 -55 -4 -15 -27 -68 -51 -119 -34 -68
-44 -99 -39 -118 4 -16 1 -34 -9 -48 -8 -12 -15 -29 -15 -38 0 -21 -14 -48
-63 -120 -20 -31 -37 -62 -37 -69 0 -11 -20 -57 -91 -206 -16 -33 -29 -65 -29
-70 0 -5 -14 -42 -30 -81 -17 -40 -35 -95 -40 -123 -5 -28 -17 -58 -25 -66 -8
-9 -15 -19 -15 -24 0 -5 -10 -19 -22 -31 -15 -14 -19 -23 -11 -26 8 -3 9 -13
2 -36 -5 -18 -9 -42 -9 -55 0 -13 -14 -57 -30 -99 -17 -41 -28 -78 -26 -82 3
-4 -5 -38 -16 -76 -11 -39 -22 -105 -24 -147 -2 -46 -9 -87 -18 -100 -15 -23
-37 -219 -37 -328 -1 -30 -1 -73 -1 -95 0 -200 5 -260 24 -295 14 -28 17 -47
12 -92 -5 -48 -2 -68 19 -120 14 -35 30 -90 36 -123 7 -33 16 -78 22 -100 6
-22 17 -69 25 -104 8 -36 18 -69 23 -75 5 -6 14 -36 21 -66 7 -30 25 -82 40
-115 14 -33 35 -84 46 -114 14 -40 28 -60 56 -79 21 -13 55 -52 77 -86 21 -35
50 -70 63 -78 13 -9 29 -33 36 -55 6 -21 28 -54 48 -73 20 -19 65 -64 101
-100 36 -36 70 -65 75 -65 6 0 19 -16 29 -35 24 -45 64 -80 92 -80 33 0 127
-51 172 -93 28 -27 46 -36 61 -33 22 6 60 -25 47 -37 -3 -4 1 -7 10 -7 8 0 18
6 20 13 3 6 6 2 6 -10 1 -12 7 -26 14 -30 6 -4 17 -17 23 -28 16 -30 179 -151
243 -181 31 -15 58 -30 61 -35 3 -4 32 -15 64 -23 32 -9 64 -20 71 -26 7 -6
20 -8 29 -4 9 3 32 -2 52 -11 54 -25 131 -36 314 -42 185 -6 483 12 545 33 24
8 41 10 43 4 2 -6 15 -4 30 4 27 13 61 22 202 51 51 11 88 25 114 45 22 17 48
30 58 30 20 0 86 34 158 81 25 16 53 32 63 35 9 4 17 15 17 25 0 11 6 19 13
19 8 0 22 9 32 20 10 11 26 20 35 20 9 0 25 9 35 20 10 11 24 20 32 20 7 0 13
7 13 16 0 15 80 104 93 104 12 0 67 63 67 76 0 9 14 27 30 41 17 13 30 30 30
36 0 14 75 87 90 87 5 0 10 5 10 11 0 17 70 80 82 73 5 -3 19 3 31 14 12 11
39 25 60 32 20 6 37 16 37 21 0 5 14 9 30 9 17 0 30 4 30 9 0 5 7 12 16 15 21
8 65 -4 58 -16 -3 -5 0 -9 7 -7 33 4 69 -2 69 -12 0 -5 -4 -8 -9 -5 -5 4 -6
-4 -3 -16 5 -19 7 -20 10 -5 5 26 17 20 30 -17 7 -18 28 -50 47 -71 19 -20 35
-38 35 -41 0 -7 92 -89 129 -113 20 -14 44 -33 54 -44 9 -11 17 -16 17 -12 0
5 11 -2 25 -15 20 -19 23 -26 12 -38 -10 -13 -9 -14 10 -4 23 13 36 4 30 -20
-2 -7 -2 -10 0 -5 3 4 9 4 15 1 5 -3 2 -14 -9 -26 -18 -21 -18 -21 6 -8 21 11
23 10 17 -5 -4 -12 -2 -16 7 -12 15 6 49 -27 39 -38 -3 -3 4 -8 16 -12 29 -7
29 -22 0 -17 -14 3 -12 0 7 -7 16 -7 35 -17 42 -23 92 -78 153 -125 173 -131
11 -4 20 -11 20 -16 0 -5 6 -9 14 -9 7 0 40 -13 72 -29 147 -71 242 -92 437
-98 171 -5 273 6 487 53 36 8 72 14 80 14 8 1 33 9 55 20 22 11 46 19 54 20
38 1 221 69 221 82 0 3 17 12 38 19 20 6 39 15 42 18 3 3 23 15 45 26 22 11
62 35 89 55 64 44 247 226 272 268 10 17 22 32 26 32 4 0 8 7 8 15 0 8 9 20
20 27 11 7 20 19 20 26 0 7 18 37 40 67 22 30 40 66 40 80 0 14 4 25 8 25 5 0
17 18 28 40 10 22 25 40 32 40 6 0 12 9 12 20 0 12 6 31 14 43 15 22 37 117
40 172 2 17 8 40 14 52 7 12 13 35 14 50 1 15 5 33 8 38 4 6 10 103 14 218 7
202 6 207 -13 207 -11 0 -25 -8 -30 -17 -10 -17 -10 -17 -11 -1 0 9 5 20 11
23 5 4 8 21 5 38 -4 22 -3 26 2 13 8 -19 9 -19 14 2 4 12 2 22 -4 22 -17 0 -2
67 23 101 19 27 21 40 17 112 -5 85 -2 111 12 102 5 -3 12 0 16 6 5 8 3 9 -6
4 -10 -6 -12 -4 -7 9 17 43 18 66 5 92 -11 22 -13 67 -11 182 2 118 -1 160
-12 181 -7 15 -14 50 -14 77 1 27 -8 69 -19 94 -26 61 -35 105 -33 163 1 26
-4 57 -10 69 -6 12 -11 43 -10 69 0 38 -5 54 -29 84 -22 28 -30 48 -30 78 0
22 -9 54 -20 72 -11 18 -25 57 -30 86 -6 30 -21 77 -35 104 -14 28 -29 72 -35
98 -15 70 -36 115 -68 148 -19 19 -38 60 -56 117 -39 122 -39 122 -85 174 -22
25 -41 54 -41 65 0 10 -11 35 -25 56 -14 20 -29 57 -34 83 -5 25 -14 51 -20
57 -6 6 -11 21 -11 34 0 12 -13 37 -29 55 -41 48 -91 148 -91 183 0 17 -11 47
-25 67 -14 20 -25 42 -25 47 0 6 -13 25 -28 43 -16 18 -34 49 -41 68 -13 38
-58 90 -77 90 -7 0 -18 17 -24 39 -5 21 -19 50 -30 64 -11 14 -20 31 -20 38 0
20 -43 78 -62 84 -9 3 -26 22 -37 41 -37 62 -95 124 -146 157 -49 31 -75 54
-127 115 -16 20 -36 32 -51 32 -30 0 -136 36 -156 53 -53 45 -113 61 -181 50z
m-3825 -373 c-5 -16 1 -23 28 -36 22 -11 42 -14 54 -9 10 5 24 7 31 6 8 -1 20
6 28 16 12 16 13 16 14 1 0 -9 7 -24 16 -32 19 -19 49 -7 59 24 4 12 11 17 18
13 13 -8 19 -9 64 -11 18 -1 32 -5 32 -9 -7 -43 4 -49 54 -28 12 5 17 2 17
-11 1 -18 1 -18 11 -1 12 21 49 23 50 2 1 -8 2 -19 3 -24 3 -23 29 -35 82 -36
31 -2 60 -8 64 -15 4 -6 10 -11 14 -11 20 3 26 -1 26 -18 0 -12 9 -20 29 -24
33 -7 48 -42 24 -56 -10 -5 -14 -15 -10 -25 4 -9 2 -16 -4 -16 -6 0 -8 -4 -5
-9 3 -4 17 -6 31 -3 15 2 25 0 25 -7 0 -6 6 -11 14 -11 8 0 24 -11 35 -26 11
-14 22 -24 24 -22 8 6 97 -106 117 -148 24 -52 25 -64 5 -64 -19 0 -19 -10 1
-60 11 -27 21 -39 30 -36 25 10 46 -6 65 -51 23 -54 24 -73 4 -73 -8 0 -15 -4
-15 -9 0 -5 7 -14 15 -21 8 -7 15 -23 15 -36 0 -13 5 -24 10 -24 6 0 10 -11
10 -25 0 -41 30 -90 62 -103 18 -6 28 -16 25 -24 -2 -7 7 -25 20 -39 20 -22
25 -38 26 -92 1 -36 -1 -60 -4 -55 -4 6 -12 7 -18 3 -16 -9 5 -35 29 -35 14 0
18 8 18 35 0 19 -4 35 -9 35 -5 0 -9 7 -9 15 0 12 29 23 30 13 1 -2 3 -21 6
-43 4 -24 14 -47 27 -57 14 -12 17 -18 8 -18 -9 0 -4 -10 13 -25 15 -14 24
-30 20 -36 -3 -6 3 -17 15 -25 12 -8 21 -23 21 -33 0 -22 22 -43 41 -38 8 2
11 2 7 0 -5 -3 -8 -16 -8 -29 0 -18 5 -24 21 -24 13 0 20 -6 18 -17 -1 -10 3
-29 9 -43 9 -22 11 -22 12 -5 1 19 1 19 11 2 8 -13 8 -22 1 -29 -8 -8 -7 -15
3 -24 7 -8 11 -22 8 -33 -3 -13 2 -21 16 -26 12 -3 19 -10 16 -15 -3 -5 -1
-11 5 -15 5 -3 10 -19 10 -34 0 -16 7 -34 14 -41 11 -9 13 -18 5 -37 -7 -20
-6 -28 3 -35 10 -6 10 -8 1 -8 -18 0 -16 -47 2 -54 8 -3 12 -12 9 -21 -3 -8
-1 -15 6 -15 7 0 9 -8 5 -19 -3 -11 -1 -22 5 -26 5 -3 10 -18 10 -32 0 -28 20
-95 32 -103 3 -3 9 -25 13 -50 4 -24 11 -52 16 -62 6 -12 6 -25 -1 -37 -13
-26 8 -68 33 -63 9 2 17 -1 17 -7 0 -6 -9 -11 -20 -11 -22 0 -27 -16 -8 -22
11 -4 13 -133 2 -170 -3 -10 -1 -18 5 -18 6 0 11 7 11 17 0 27 12 6 16 -27 2
-19 0 -29 -6 -25 -11 7 -13 -13 -14 -141 -1 -73 -5 -96 -18 -111 -20 -22 -23
-33 -9 -33 5 0 11 7 13 17 3 15 4 15 16 0 12 -14 10 -17 -12 -23 -17 -4 -26
-13 -26 -27 0 -11 -7 -28 -16 -38 -9 -11 -16 -35 -16 -63 0 -25 -3 -46 -6 -46
-9 0 -29 -45 -38 -85 -4 -16 -11 -36 -17 -42 -13 -17 24 -18 41 -1 6 6 14 9
18 5 10 -10 -6 -27 -26 -27 -17 0 -19 -7 -17 -66 1 -49 -2 -68 -13 -77 -9 -7
-14 -20 -12 -31 2 -10 -1 -23 -7 -29 -18 -18 -13 -36 9 -30 12 3 20 0 20 -6 0
-7 -5 -9 -11 -6 -14 9 -59 -33 -59 -55 0 -9 -7 -25 -15 -36 -21 -27 -18 -36 8
-29 l22 7 -22 -21 c-13 -12 -23 -27 -23 -34 -1 -15 -30 -48 -55 -63 -11 -7
-19 -20 -18 -30 1 -10 -3 -21 -8 -25 -5 -3 -12 -18 -15 -33 -3 -18 -1 -25 6
-21 15 9 12 -8 -5 -31 -19 -25 -19 -32 4 -39 13 -4 18 -14 17 -35 -1 -17 -6
-28 -11 -26 -6 2 -26 -13 -46 -33 -29 -31 -33 -39 -22 -50 8 -7 12 -18 10 -24
-3 -10 -8 -14 -57 -36 -34 -16 -57 -67 -41 -93 9 -15 8 -20 -6 -25 -23 -8 -53
-33 -53 -45 0 -4 9 -8 20 -8 11 0 20 7 20 15 0 13 2 13 14 3 11 -11 10 -16 -6
-30 -11 -10 -29 -20 -39 -23 -11 -4 -19 -10 -19 -14 0 -12 -66 -32 -84 -25 -9
3 -16 1 -16 -5 0 -6 -6 -11 -13 -11 -8 0 -19 -12 -26 -27 -8 -16 -17 -36 -23
-46 -5 -10 -6 -22 -2 -28 9 -16 -16 -39 -45 -40 -21 0 -22 -2 -8 -8 17 -6 17
-8 -2 -25 -26 -23 -112 -41 -122 -25 -5 8 -8 8 -13 0 -4 -6 -2 -11 3 -11 6 0
11 -4 11 -10 0 -5 -8 -10 -19 -10 -15 0 -20 10 -25 50 -5 38 -10 48 -21 44
-17 -7 -21 -54 -5 -54 19 0 10 -22 -11 -27 -16 -5 -18 -8 -7 -15 9 -7 3 -8
-16 -3 -19 4 -32 2 -37 -7 -5 -7 -27 -13 -51 -13 -34 0 -43 -4 -42 -17 1 -10
-4 -14 -12 -11 -8 3 -14 14 -14 24 0 11 -7 22 -15 25 -8 4 -15 10 -15 16 0 5
6 6 13 3 6 -4 -1 5 -18 19 -31 27 -55 34 -55 16 0 -5 7 -10 15 -10 19 0 21
-93 3 -107 -18 -14 -71 -26 -64 -14 3 5 -1 11 -9 15 -8 3 -15 2 -15 -3 0 -5
-11 -12 -24 -15 -13 -3 -32 -9 -42 -13 -12 -4 -15 -3 -10 5 4 7 16 12 27 12
21 0 25 10 8 27 -11 11 8 53 24 53 5 0 15 6 22 14 12 12 8 15 -25 20 -46 7
-73 -1 -66 -20 3 -8 -1 -14 -9 -14 -8 0 -15 -4 -15 -10 0 -5 11 -10 25 -10 46
0 28 -25 -20 -28 -98 -5 -115 -7 -115 -13 0 -4 -20 -9 -44 -10 -24 -2 -42 0
-39 5 3 4 -12 5 -33 2 -32 -6 -44 -3 -61 13 -16 16 -30 19 -52 15 -17 -4 -31
-10 -31 -15 0 -5 -11 -9 -25 -9 -18 0 -23 4 -19 15 7 18 0 19 -26 5 -14 -8
-21 -6 -28 6 -6 11 -17 15 -31 11 -11 -3 -24 -1 -27 4 -4 6 -11 6 -19 -1 -10
-9 -21 -7 -42 4 -15 8 -22 15 -15 16 6 0 12 12 12 26 0 16 -5 24 -12 21 -7 -2
-12 -11 -10 -21 2 -12 -5 -16 -28 -16 -16 0 -30 4 -30 8 0 5 -10 13 -22 19
-15 7 -22 19 -23 39 0 21 -5 29 -17 28 -10 -1 -18 4 -18 12 0 8 -7 14 -15 14
-8 0 -16 8 -17 18 -2 32 -4 37 -21 70 -16 30 -47 45 -47 22 0 -5 -7 -10 -15
-10 -7 0 -18 -6 -22 -13 -11 -18 -60 -30 -68 -17 -4 6 -16 8 -27 4 -16 -5 -20
-3 -15 9 3 9 1 18 -6 21 -7 2 -4 5 6 5 27 1 20 21 -9 21 -21 0 -24 4 -19 20 8
25 -5 26 -32 1 -20 -19 -20 -19 -19 9 1 15 4 26 9 23 4 -2 14 2 22 10 13 13
13 16 -1 21 -9 3 -20 4 -24 1 -5 -3 -14 8 -22 25 -7 16 -19 30 -25 30 -11 0
-16 9 -15 30 0 3 3 20 7 38 6 30 4 33 -29 47 -20 9 -36 20 -36 25 0 6 -9 10
-20 10 -11 0 -19 3 -19 8 3 20 -2 32 -16 32 -20 0 -31 66 -17 104 10 26 9 33
-8 51 -11 12 -20 25 -20 29 0 4 -7 14 -16 23 -14 14 -16 14 -28 -3 -13 -17
-14 -16 -25 4 -7 13 -9 27 -6 32 4 6 -1 13 -9 16 -20 8 -21 24 -2 24 10 0 14
13 14 45 -1 31 -5 45 -15 45 -7 0 -13 7 -13 15 0 8 7 15 16 15 8 0 13 4 10 9
-7 11 -55 11 -62 0 -3 -5 2 -16 10 -25 9 -9 13 -20 10 -26 -14 -22 -42 38 -35
76 3 13 -20 36 -30 30 -5 -3 -6 2 -3 10 3 9 12 16 20 16 8 0 14 5 14 10 0 6
-4 10 -10 10 -5 0 -10 7 -10 15 0 8 -6 14 -12 12 -8 -1 -14 10 -16 26 -3 22 1
27 19 27 26 0 15 16 -15 22 -27 4 -33 28 -7 28 11 0 23 4 26 10 7 11 -13 89
-27 105 -4 5 -8 17 -8 26 0 9 -7 20 -16 23 -12 5 -15 14 -10 36 4 22 2 30 -9
30 -16 0 -31 43 -20 60 4 6 1 17 -5 25 -20 25 -4 45 37 47 l38 1 -36 4 c-33 4
-38 8 -43 38 -4 18 -12 35 -18 37 -7 3 2 11 20 19 31 13 47 37 18 26 -9 -3
-21 4 -30 19 -15 21 -15 24 -1 24 19 0 19 14 0 34 -19 19 -9 46 19 47 13 0 16
3 7 6 -15 6 -51 40 -51 48 0 13 40 3 48 -12 8 -13 9 -8 8 18 -2 21 -7 33 -15
31 -7 -1 0 15 16 35 25 34 25 36 4 18 l-24 -20 6 25 c4 14 7 31 7 38 0 6 6 12
14 12 15 0 28 24 19 34 -4 3 -11 2 -17 -4 -9 -6 -12 7 -11 49 0 48 3 57 15 53
13 -5 13 -3 1 12 -13 15 -12 18 7 23 12 3 22 12 22 20 0 10 -6 13 -17 8 -15
-5 -16 -4 -6 6 7 7 13 21 13 30 0 9 7 22 15 29 12 10 13 15 4 20 -8 6 -8 13 1
30 7 12 10 33 7 46 -3 17 0 24 11 24 9 0 13 7 9 20 -6 22 29 99 49 107 7 2 11
10 8 17 -4 11 3 22 45 72 6 7 6 15 1 20 -9 9 9 76 23 90 4 4 7 17 7 29 0 12 3
25 7 29 4 3 12 22 19 41 8 25 8 36 0 39 -7 3 -4 9 7 16 9 6 17 15 17 20 0 15
-30 12 -31 -2 -5 -52 -12 -70 -43 -118 -20 -30 -36 -52 -36 -49 0 24 80 229
102 261 10 14 18 36 18 47 0 25 41 120 53 121 4 0 7 -9 7 -19 0 -11 4 -22 10
-26 5 -3 6 -13 3 -23 -6 -15 -5 -15 10 -3 9 7 17 22 17 32 0 11 4 27 9 37 30
60 49 112 42 112 -5 0 -11 -9 -14 -20 -5 -19 -33 -37 -43 -28 -6 6 27 70 41
80 5 4 14 3 19 -2 15 -15 26 -12 26 5 0 8 5 15 10 15 6 0 10 7 10 15 0 8 -4
15 -10 15 -14 0 -13 33 2 48 7 7 9 12 5 12 -9 0 31 79 49 98 9 8 12 23 8 38
-6 21 1 33 42 69 32 30 49 53 49 70 2 33 39 83 72 96 21 8 23 12 13 24 -10 12
-10 18 0 30 8 9 10 28 6 49 -5 28 -3 36 19 50 14 9 25 23 25 31 0 8 5 15 11
15 5 0 7 5 4 10 -10 17 6 34 17 19 6 -10 7 -7 3 9 -5 18 -2 22 15 22 12 0 28
7 36 15 14 13 13 15 -5 15 -12 0 -21 6 -21 15 0 8 7 15 15 15 8 0 15 5 15 10
0 13 -23 13 -37 -1 -7 -7 -12 -2 -15 19 -4 29 4 35 30 19 8 -6 12 -1 12 17 0
17 6 26 15 26 9 0 18 6 21 14 3 8 13 12 26 8 15 -3 19 -1 14 6 -4 7 0 15 8 18
9 4 16 18 16 34 0 20 6 31 20 35 11 3 20 15 20 26 0 22 4 23 29 7 28 -17 48
-4 55 36 4 21 13 36 21 36 8 0 18 6 22 13 4 7 19 20 33 29 39 26 96 81 103
101 9 24 20 22 12 -3z m3823 -59 c1 -1 2 -7 2 -13 0 -7 12 -21 25 -31 25 -18
25 -18 25 8 0 14 5 25 11 25 6 0 9 -6 6 -13 -3 -8 -1 -20 3 -28 7 -10 11 -7
19 14 11 28 31 37 31 15 1 -7 6 -4 13 8 14 24 37 21 37 -4 0 -30 -21 -92 -30
-92 -6 0 -10 10 -10 22 l0 21 -24 -22 c-18 -17 -23 -30 -20 -49 3 -15 9 -29
15 -30 5 -2 6 -9 2 -15 -4 -7 -1 -7 9 1 11 9 18 10 23 2 9 -15 35 -12 35 4 0
14 65 60 85 61 6 0 15 4 22 8 7 5 14 -3 18 -23 4 -20 13 -30 25 -30 10 0 25
-7 34 -15 17 -17 36 -20 36 -4 0 21 18 -2 24 -31 3 -18 10 -29 16 -25 5 3 10
-3 10 -14 0 -10 5 -21 10 -23 6 -2 11 -21 12 -43 1 -22 3 -34 6 -27 8 25 19
11 26 -34 6 -47 8 -50 65 -98 19 -15 35 -36 36 -46 1 -10 9 -26 19 -35 9 -10
15 -22 14 -27 -2 -6 20 -34 50 -64 30 -29 51 -58 48 -63 -4 -5 -2 -12 4 -16 5
-3 10 -15 10 -26 0 -10 5 -19 11 -19 6 0 8 -8 4 -19 -4 -12 1 -24 12 -33 34
-25 138 -213 127 -230 -3 -5 1 -20 10 -33 9 -13 16 -30 16 -36 0 -7 6 -20 14
-28 7 -9 24 -43 37 -76 13 -33 27 -63 32 -66 4 -3 7 -10 5 -15 -1 -5 6 -23 15
-41 9 -18 17 -38 17 -46 0 -8 9 -25 20 -38 17 -21 19 -22 20 -6 0 35 52 -41
61 -90 5 -25 19 -62 31 -82 28 -44 48 -105 48 -148 0 -18 5 -33 10 -33 6 0 10
-7 10 -16 0 -14 2 -15 17 -3 15 13 16 10 9 -30 -7 -49 10 -111 32 -111 7 0 11
-4 8 -9 -4 -5 -1 -11 5 -13 7 -2 12 -23 12 -47 0 -24 6 -56 13 -70 8 -14 14
-41 14 -59 0 -18 7 -46 15 -63 9 -16 13 -34 9 -40 -4 -6 -2 -14 5 -18 6 -4 13
-42 15 -86 3 -43 9 -81 15 -84 18 -11 30 -222 13 -228 -8 -4 -6 -158 2 -172 8
-12 -10 -24 -24 -16 -5 3 -16 -8 -24 -24 -15 -28 -15 -30 3 -36 20 -6 41 -70
41 -128 0 -39 -44 -135 -65 -143 -9 -4 -15 -19 -15 -36 0 -18 -7 -36 -17 -43
-15 -11 -15 -15 -4 -29 7 -9 17 -13 22 -10 5 3 9 -21 9 -54 0 -43 -5 -66 -19
-84 -12 -15 -16 -29 -11 -37 4 -8 5 -31 3 -52 -5 -32 -2 -39 11 -39 20 0 21
-14 1 -30 -12 -10 -15 -9 -15 6 -1 18 -1 18 -15 -1 -8 -11 -19 -26 -26 -33 -6
-7 -8 -24 -5 -38 5 -20 -4 -31 -17 -21 -9 6 -37 -28 -35 -42 3 -23 -12 -61
-24 -61 -5 0 -8 -6 -5 -14 6 -16 -13 -66 -25 -66 -5 0 -8 -9 -8 -21 0 -11 -4
-18 -9 -15 -5 3 -12 -1 -15 -10 -4 -11 -13 -14 -31 -10 -14 4 -25 2 -25 -3 0
-4 -13 -11 -30 -14 -22 -5 -30 -12 -30 -27 0 -28 -18 -61 -43 -82 -19 -15 -20
-19 -8 -42 8 -14 18 -23 23 -20 4 3 8 -2 8 -10 0 -8 -10 -16 -22 -19 l-23 -4
24 -9 c21 -9 17 -12 -35 -23 -92 -19 -104 -28 -102 -73 1 -42 -8 -53 -74 -88
-21 -11 -38 -25 -38 -31 0 -6 -4 -8 -8 -5 -4 2 -14 1 -22 -4 -7 -4 -23 -4 -36
2 -20 10 -28 7 -50 -17 -18 -19 -22 -30 -14 -35 8 -5 4 -9 -9 -13 -12 -3 -20
-11 -19 -19 2 -8 -7 -13 -24 -13 -17 1 -28 -5 -28 -13 0 -7 -6 -12 -12 -9 -7
2 -12 14 -11 26 2 11 0 21 -2 21 -10 0 -60 -33 -72 -48 -6 -7 -17 -14 -25 -16
-7 -1 -19 -5 -25 -9 -9 -6 -13 -2 -13 12 0 19 -3 19 -27 8 -16 -6 -32 -17 -36
-24 -11 -18 -34 -16 -41 2 -6 16 -51 21 -60 6 -3 -4 -33 -11 -66 -15 -75 -9
-90 -14 -90 -33 0 -8 -4 -11 -10 -8 -13 8 8 41 36 56 22 11 22 13 6 35 -18 23
-43 24 -102 2 -24 -9 -24 -10 -6 -24 11 -8 14 -14 7 -14 -7 0 -9 -4 -6 -10 4
-6 -12 -10 -39 -10 -34 0 -46 4 -46 15 0 10 -10 15 -29 15 -46 0 -91 -12 -91
-24 0 -6 -11 -11 -24 -11 -13 0 -22 3 -20 6 5 9 -22 19 -50 19 -19 0 -22 4
-19 23 3 15 -4 30 -20 46 l-25 23 -11 -21 c-20 -36 -80 -17 -66 21 3 8 -2 21
-11 28 -14 12 -20 12 -44 -2 -26 -15 -31 -14 -74 6 -25 11 -46 24 -46 29 0 4
-9 16 -21 28 -15 15 -28 19 -56 14 -34 -5 -35 -4 -29 20 4 14 2 25 -3 25 -5 0
-17 12 -27 28 -20 30 -21 72 -2 83 20 13 1 21 -20 10 -27 -14 -69 -14 -78 0
-11 19 19 29 37 13 12 -11 19 -12 24 -4 4 6 -9 18 -34 28 -32 14 -41 23 -47
52 -5 25 -9 29 -12 16 -3 -14 -17 7 -46 68 -23 48 -47 87 -51 86 -5 -1 -11 3
-13 9 -2 6 1 11 7 11 19 0 12 32 -8 37 -10 2 -24 16 -30 29 -13 30 -14 37 -2
30 11 -7 23 22 15 35 -3 5 -12 9 -20 9 -8 0 -14 8 -14 17 0 15 -2 14 -15 -3
-15 -18 -16 -17 -9 16 3 19 11 41 16 48 7 8 7 12 -1 12 -6 0 -11 6 -11 13 0 8
-11 24 -25 37 -14 13 -23 30 -21 36 3 7 0 15 -7 18 -9 5 -9 7 1 12 17 8 15 27
-3 20 -17 -6 -21 19 -4 30 8 5 8 9 -1 14 -6 4 -12 23 -13 43 -1 20 -7 37 -14
37 -6 0 -9 9 -6 20 3 11 1 20 -3 20 -18 -1 -44 -28 -44 -44 0 -10 -4 -15 -10
-11 -5 3 -7 12 -3 20 3 9 -1 15 -10 15 -8 0 -17 -6 -20 -12 -2 -7 -8 -10 -12
-6 -4 4 0 25 9 48 20 50 20 56 1 40 -13 -11 -15 -8 -15 16 0 16 7 41 14 56 14
26 5 51 -9 28 -7 -12 -25 -13 -25 -2 0 5 9 18 20 30 l21 22 -22 -3 c-28 -3
-32 26 -15 103 7 30 9 69 5 85 -4 17 -7 26 -8 20 -1 -5 -8 -2 -15 8 -9 12 -11
29 -6 58 4 22 3 59 -2 81 -5 23 -11 71 -13 107 -2 36 -7 74 -10 84 -4 9 -3 17
3 17 6 0 13 -18 17 -40 4 -22 11 -40 15 -40 10 0 1 67 -12 94 -8 14 -12 15
-18 6 -4 -7 -11 18 -15 59 -8 79 -1 107 10 42 9 -53 25 -53 25 -1 0 22 5 40
11 40 11 0 7 89 -7 159 -5 25 -4 32 4 27 8 -5 12 1 12 14 0 12 -4 18 -10 15
-5 -3 -10 -4 -10 -1 0 2 -3 12 -7 21 -5 14 -2 16 15 11 17 -6 21 -4 16 8 -5
12 -2 15 10 10 19 -7 34 22 18 38 -7 7 -6 21 5 45 8 20 12 41 9 49 -3 7 -1 14
4 16 6 2 6 18 -1 41 -8 28 -7 42 1 52 7 8 14 48 16 90 2 46 9 84 19 98 20 29
20 51 -1 43 -13 -5 -15 -2 -10 16 3 13 6 29 6 37 0 11 4 9 15 -5 13 -17 14
-17 15 -2 0 10 13 32 30 51 30 35 95 207 78 207 -5 0 2 21 16 46 14 26 26 60
26 75 0 16 11 47 25 69 14 22 25 49 25 60 0 11 4 20 8 20 10 0 42 70 42 91 0
8 9 29 20 47 11 18 20 42 20 55 0 26 64 157 82 168 10 7 9 9 -3 9 -12 0 -7 10
18 35 19 19 32 39 29 44 -11 17 12 22 28 5 15 -14 18 -14 41 8 30 28 31 39 5
56 -23 14 -17 38 11 47 10 4 19 16 20 28 1 20 2 20 9 -3 14 -43 12 -70 -5 -64
-8 4 -15 1 -15 -5 0 -6 5 -11 11 -11 8 0 10 -12 6 -34 -4 -27 -3 -34 9 -29 7
3 11 9 8 14 -3 5 4 21 15 35 24 30 26 46 10 76 -9 17 -13 18 -20 7 -6 -11 -9
-8 -9 8 0 12 9 27 20 33 12 6 19 19 17 33 -1 16 4 22 18 23 37 3 40 5 20 14
-18 8 -17 9 8 9 28 1 39 21 11 21 -8 0 -12 5 -9 10 3 6 19 10 36 10 16 0 29 4
29 9 0 5 9 12 19 16 11 3 23 15 26 25 4 11 13 27 22 35 12 12 13 19 3 30 -7 9
-8 15 -2 15 5 0 13 -7 16 -16 9 -24 7 -54 -4 -54 -5 0 -10 -19 -10 -42 0 -24
4 -38 8 -31 4 6 20 16 35 22 25 10 39 41 17 41 -5 0 -10 17 -10 38 0 21 -9 48
-20 62 -24 31 -25 42 -2 38 11 -2 18 5 20 20 4 26 36 42 84 42 30 0 67 31 68
58 0 7 14 12 35 12 47 0 101 23 115 50 9 18 18 20 53 16 23 -3 43 -5 45 -5z
m-3218 -55 c0 -3 -4 -8 -10 -11 -5 -3 -10 -1 -10 4 0 6 5 11 10 11 6 0 10 -2
10 -4z m3420 -5 c0 -12 -20 -25 -27 -18 -7 7 6 27 18 27 5 0 9 -4 9 -9z
m-4320 -111 c0 -5 -4 -10 -10 -10 -5 0 -10 5 -10 10 0 6 5 10 10 10 6 0 10 -4
10 -10z m3480 -50 c-11 -20 -30 -28 -30 -12 0 11 22 32 32 32 5 0 4 -9 -2 -20z
m150 -73 c0 -11 -33 -67 -38 -66 -16 1 -46 18 -34 18 6 1 12 8 12 16 0 8 7 15
15 15 8 0 15 5 15 10 0 6 7 10 15 10 8 0 15 -2 15 -3z m-3814 -143 c-25 -18
-31 -12 -16 16 9 17 15 19 23 10 9 -9 7 -15 -7 -26z m-172 -359 c-4 -8 -10
-12 -15 -9 -11 6 -2 24 11 24 5 0 7 -7 4 -15z m-144 -359 c0 -2 -7 -6 -15 -10
-8 -3 -15 -1 -15 4 0 6 7 10 15 10 8 0 15 -2 15 -4z m3541 -55 c7 11 9 10 9
-4 0 -20 -22 -19 -26 1 -2 9 -1 9 3 1 4 -8 8 -7 14 2z m-49 -153 c-7 -7 -12
-8 -12 -2 0 14 12 26 19 19 2 -3 -1 -11 -7 -17z m-12 -100 c0 -5 -7 -8 -15 -8
-17 0 -18 2 -9 25 5 13 8 14 15 3 5 -7 9 -16 9 -20z m-10 -56 c0 -5 -7 -17
-15 -28 -14 -18 -14 -17 -4 9 12 27 19 34 19 19z m-1123 -184 c-3 -8 -6 -5 -6
6 -1 11 2 17 5 13 3 -3 4 -12 1 -19z m3600 -155 c-3 -10 -5 -4 -5 12 0 17 2
24 5 18 2 -7 2 -21 0 -30z m-2703 -318 c-11 -8 -14 -15 -6 -15 6 0 12 -5 12
-10 0 -6 -8 -5 -20 2 -27 17 -25 36 3 40 31 5 34 0 11 -17z m3 -607 c-3 -7 -5
-2 -5 12 0 14 2 19 5 13 2 -7 2 -19 0 -25z m-797 -138 c0 -5 -4 -10 -10 -10
-5 0 -10 5 -10 10 0 6 5 10 10 10 6 0 10 -4 10 -10z m3540 -349 c0 -6 -4 -13
-10 -16 -5 -3 -10 1 -10 9 0 9 5 16 10 16 6 0 10 -4 10 -9z m-2570 -152 c0 -5
-4 -9 -10 -9 -5 0 -10 7 -10 16 0 8 5 12 10 9 6 -3 10 -10 10 -16z m2917 -21
c-3 -8 -6 -5 -6 6 -1 11 2 17 5 13 3 -3 4 -12 1 -19z m-2932 -28 c-3 -5 -11
-10 -16 -10 -6 0 -7 5 -4 10 3 6 11 10 16 10 6 0 7 -4 4 -10z m2918 -54 c3
-30 1 -43 -4 -35 -5 8 -8 34 -8 59 1 53 6 44 12 -24z m14 -8 c-3 -8 -6 -5 -6
6 -1 11 2 17 5 13 3 -3 4 -12 1 -19z m-41 -64 c-4 -9 -9 -15 -11 -12 -3 3 -3
13 1 22 4 9 9 15 11 12 3 -3 3 -13 -1 -22z m34 -94 l-11 -25 6 25 c2 14 5 36
6 50 l2 25 4 -25 c2 -14 -1 -37 -7 -50z m-4100 -95 c-7 -8 -19 -15 -27 -15
-11 0 -9 7 8 25 25 25 41 16 19 -10z m1390 -145 c0 -5 -2 -10 -4 -10 -3 0 -8
5 -11 10 -3 6 -1 10 4 10 6 0 11 -4 11 -10z m-40 -10 c0 -5 -5 -10 -11 -10 -5
0 -7 5 -4 10 3 6 8 10 11 10 2 0 4 -4 4 -10z m-245 -260 c10 -11 16 -20 13
-20 -3 0 -13 9 -23 20 -10 11 -16 20 -13 20 3 0 13 -9 23 -20z m-10 -28 c-3
-3 -11 0 -18 7 -9 10 -8 11 6 5 10 -3 15 -9 12 -12z m41 -17 c17 -16 14 -18
-10 -9 -9 3 -16 10 -16 15 0 13 9 11 26 -6z m-1381 -25 c-3 -5 -14 -10 -23
-10 -15 0 -15 2 -2 10 20 13 33 13 25 0z m-80 -30 c-3 -5 -14 -10 -23 -10 -15
0 -15 2 -2 10 20 13 33 13 25 0z m-1685 -80 c0 -5 -7 -10 -15 -10 -8 0 -15 5
-15 10 0 6 7 10 15 10 8 0 15 -4 15 -10z m193 -137 c-7 -2 -19 -2 -25 0 -7 3
-2 5 12 5 14 0 19 -2 13 -5z m4024 -39 c-9 -9 -28 6 -21 18 4 6 10 6 17 -1 6
-6 8 -13 4 -17z m-3342 -35 c-4 -5 -13 -9 -21 -9 -12 0 -12 2 -2 14 14 15 32
11 23 -5z m-272 -6 c-7 -2 -19 -2 -25 0 -7 3 -2 5 12 5 14 0 19 -2 13 -5z
m247 -33 c0 -5 -4 -10 -10 -10 -5 0 -10 5 -10 10 0 6 5 10 10 10 6 0 10 -4 10
-10z"/>
<path d="M2516 6613 c-15 -25 -29 -58 -31 -72 -3 -14 -2 -19 1 -11 4 8 14 24
23 35 23 28 53 95 42 95 -5 0 -21 -21 -35 -47z"/>
<path d="M2320 6264 c0 -8 5 -12 10 -9 6 3 10 10 10 16 0 5 -4 9 -10 9 -5 0
-10 -7 -10 -16z"/>
<path d="M3550 6222 c0 -5 -21 -8 -47 -8 -66 1 -202 -14 -222 -24 -9 -4 -63
-22 -120 -39 -87 -27 -112 -39 -150 -74 -25 -23 -76 -60 -113 -82 -37 -22 -73
-51 -80 -65 -17 -34 -71 -100 -81 -100 -15 0 -42 -36 -74 -97 -9 -18 -24 -33
-34 -33 -10 0 -19 -11 -22 -29 -3 -16 -12 -35 -20 -42 -7 -8 -22 -39 -33 -69
-10 -30 -24 -59 -30 -65 -7 -5 -19 -48 -28 -95 -9 -47 -19 -96 -23 -110 -4
-14 -9 -106 -10 -205 -3 -138 0 -195 12 -245 8 -36 17 -79 19 -95 1 -17 8 -39
14 -50 20 -33 52 -125 52 -145 0 -11 5 -20 11 -20 6 0 9 -7 5 -15 -3 -8 -1
-15 4 -15 6 0 10 -7 10 -15 0 -8 5 -15 10 -15 6 0 10 -6 10 -13 0 -8 9 -24 20
-37 13 -15 18 -31 14 -43 -4 -11 -2 -17 3 -14 6 4 23 -7 38 -23 15 -16 33 -27
38 -23 6 3 7 1 3 -6 -7 -10 15 -41 29 -41 3 0 16 -11 28 -23 12 -13 32 -29 45
-36 12 -7 20 -17 16 -23 -5 -7 0 -9 14 -6 15 4 19 2 15 -9 -3 -7 -2 -13 3 -12
21 4 28 -2 14 -11 -13 -8 -13 -10 2 -10 9 0 19 6 21 13 4 8 12 4 25 -12 13
-17 25 -21 40 -17 14 5 27 0 40 -15 16 -17 30 -20 69 -18 55 3 203 -20 203
-32 0 -4 9 -10 19 -14 11 -3 24 -20 30 -36 9 -28 12 -29 26 -16 8 9 15 20 15
25 0 18 28 21 70 6 52 -18 142 -31 203 -29 35 2 47 -2 47 -13 0 -10 5 -12 18
-6 9 4 27 7 40 7 23 -1 30 13 10 19 -15 5 -1 28 18 28 9 0 12 -5 8 -12 -5 -8
-2 -9 10 -5 10 4 20 7 22 7 2 0 4 8 5 18 0 9 3 12 5 6 6 -13 44 -7 44 7 0 5 9
9 20 9 11 0 20 5 20 10 0 6 9 10 19 10 11 0 23 5 26 10 3 6 17 10 29 10 17 0
23 5 22 18 -1 12 7 18 27 20 15 2 27 8 27 13 0 6 5 7 11 4 6 -4 19 2 30 14 12
12 26 18 36 14 10 -4 14 -2 10 4 -10 16 3 45 18 39 8 -3 10 4 7 20 -4 20 1 27
27 37 30 11 42 27 21 27 -21 0 -9 20 15 26 14 3 25 13 25 21 0 7 10 24 23 36
29 28 70 114 93 197 10 36 21 67 24 70 18 15 45 203 43 305 -1 149 -7 217 -23
270 -43 149 -65 214 -91 272 -15 34 -24 65 -21 69 4 4 2 4 -5 1 -7 -5 -14 4
-18 23 -9 42 -94 177 -170 270 -24 30 -44 59 -45 63 0 12 -20 30 -96 89 -38
29 -78 61 -89 71 -27 25 -112 67 -136 67 -11 0 -31 8 -45 17 -14 9 -37 18 -51
19 -13 2 -36 10 -50 20 -24 15 -26 15 -20 0 4 -9 2 -16 -4 -16 -5 0 -12 7 -15
15 -6 16 -24 21 -24 7z m-420 -727 c0 -18 -5 -25 -19 -25 -17 0 -18 3 -8 25
15 32 27 32 27 0z m236 -81 c-4 -9 -9 -15 -11 -12 -3 3 -3 13 1 22 4 9 9 15
11 12 3 -3 3 -13 -1 -22z m34 -39 c-15 -18 -4 -37 19 -33 48 8 69 -59 25 -79
-23 -11 -29 -9 -49 12 -28 32 -33 31 -37 -2 -2 -23 -4 -25 -10 -10 -5 12 -1
24 13 38 15 15 18 24 10 32 -7 7 -7 14 0 24 7 7 8 13 3 13 -11 0 18 20 30 20
5 0 3 -7 -4 -15z m-246 -127 c23 -32 8 -43 -20 -13 -28 30 -29 35 -10 35 8 0
22 -10 30 -22z m154 -28 c6 0 12 -7 12 -15 0 -8 -7 -15 -15 -15 -8 0 -24 -5
-35 -12 -23 -15 -35 -5 -25 19 5 10 7 22 6 27 -1 5 8 6 21 2 13 -3 29 -6 36
-6z m122 -25 c7 -9 11 -18 8 -20 -9 -10 -38 7 -38 21 0 18 14 18 30 -1z m-80
-32 c0 -5 -10 -19 -21 -33 -18 -22 -20 -23 -17 -5 1 11 -2 21 -7 22 -6 1 -9
-5 -7 -13 3 -14 -24 -31 -34 -22 -2 3 0 17 5 32 9 21 17 26 46 26 19 0 35 -3
35 -7z m-110 -13 c0 -5 -4 -10 -10 -10 -5 0 -10 5 -10 10 0 6 5 10 10 10 6 0
10 -4 10 -10z m108 -82 c-3 -7 -13 -15 -23 -16 -15 -4 -16 -2 -4 12 17 19 32
21 27 4z m-108 -753 c0 -2 -10 -10 -22 -16 -21 -11 -22 -11 -9 4 13 16 31 23
31 12z"/>
<path d="M2295 6190 c-3 -5 -1 -10 4 -10 6 0 11 5 11 10 0 6 -2 10 -4 10 -3 0
-8 -4 -11 -10z"/>
<path d="M2255 6090 c4 -6 11 -8 16 -5 14 9 11 15 -7 15 -8 0 -12 -5 -9 -10z"/>
<path d="M2012 4901 c-11 -7 -11 -9 1 -14 9 -3 18 1 21 9 6 16 -2 18 -22 5z"/>
<path d="M2090 4681 c0 -5 -3 -18 -7 -28 -6 -17 -6 -17 10 -1 19 18 22 38 7
38 -5 0 -10 -4 -10 -9z"/>
<path d="M2116 4375 c-4 -10 1 -15 16 -15 17 0 18 2 8 15 -7 8 -14 15 -15 15
-2 0 -5 -7 -9 -15z"/>
<path d="M4045 4090 c4 -6 11 -8 16 -5 14 9 11 15 -7 15 -8 0 -12 -5 -9 -10z"/>
<path d="M4690 4089 c0 -5 5 -7 10 -4 6 3 10 8 10 11 0 2 -4 4 -10 4 -5 0 -10
-5 -10 -11z"/>
<path d="M4640 4050 c0 -5 7 -10 15 -10 8 0 15 5 15 10 0 6 -7 10 -15 10 -8 0
-15 -4 -15 -10z"/>
<path d="M2295 3790 c-3 -5 1 -10 9 -10 9 0 16 5 16 10 0 6 -4 10 -9 10 -6 0
-13 -4 -16 -10z"/>
<path d="M4388 3453 c7 -3 16 -2 19 1 4 3 -2 6 -13 5 -11 0 -14 -3 -6 -6z"/>
<path d="M4117 3293 c-4 -3 -7 -14 -7 -24 0 -10 -7 -25 -16 -33 -14 -14 -14
-16 0 -16 10 0 13 -6 10 -15 -4 -9 0 -15 10 -15 9 0 16 7 16 15 0 8 7 15 15
15 11 0 15 11 15 40 0 32 -4 40 -18 40 -10 0 -22 -3 -25 -7z"/>
<path d="M4180 3249 c0 -5 5 -7 10 -4 6 3 10 8 10 11 0 2 -4 4 -10 4 -5 0 -10
-5 -10 -11z"/>
<path d="M2977 3213 c-11 -11 -8 -65 3 -58 6 4 9 20 8 36 -3 32 -2 32 -11 22z"/>
<path d="M3890 3204 c0 -9 -9 -18 -20 -21 -21 -6 -25 -20 -11 -42 7 -11 11 -9
20 8 7 11 18 21 26 21 9 0 15 10 15 25 0 16 -6 25 -15 25 -8 0 -15 -7 -15 -16z"/>
<path d="M3816 3155 c-3 -9 0 -15 9 -15 16 0 20 16 6 24 -5 3 -11 -1 -15 -9z"/>
<path d="M6320 6929 c0 -5 5 -7 10 -4 6 3 10 8 10 11 0 2 -4 4 -10 4 -5 0 -10
-5 -10 -11z"/>
<path d="M6391 6914 c0 -11 3 -14 6 -6 3 7 2 16 -1 19 -3 4 -6 -2 -5 -13z"/>
<path d="M6950 6166 c-72 -19 -241 -100 -266 -127 -10 -12 -46 -42 -79 -67
-98 -76 -170 -161 -206 -242 -5 -13 -14 -27 -18 -30 -5 -3 -27 -44 -50 -92
-24 -49 -46 -88 -51 -88 -5 0 -12 -30 -15 -67 -4 -38 -11 -72 -15 -78 -4 -5
-10 -26 -13 -45 -3 -19 -12 -71 -21 -115 -53 -271 38 -678 183 -820 17 -16 31
-33 31 -37 0 -15 50 -57 50 -43 0 8 -5 17 -11 21 -6 3 -9 14 -6 23 2 10 -2 26
-9 36 -16 22 -19 105 -4 105 6 0 10 18 10 41 0 53 -23 48 -31 -7 l-6 -39 -2
36 c0 22 5 42 14 49 18 15 20 37 3 42 -7 3 -12 24 -11 56 1 44 5 56 27 73 19
15 26 30 26 55 0 25 7 41 26 57 27 23 39 78 23 108 -19 37 -10 161 16 207 11
22 14 23 15 8 0 -35 14 -6 20 42 3 29 10 46 18 45 7 -2 12 1 12 7 0 5 7 7 15
4 11 -4 15 1 15 17 0 13 4 20 8 14 17 -23 84 -24 107 -2 20 21 45 22 45 2 0
-29 30 -15 45 20 24 59 65 87 65 45 0 -11 5 -20 10 -20 6 0 10 5 10 10 0 6 7
10 15 10 9 0 15 9 15 24 0 20 6 25 40 31 22 4 40 11 40 16 0 5 6 9 14 9 8 0
17 6 19 13 3 6 6 2 6 -10 1 -16 5 -21 17 -16 11 4 12 8 4 13 -8 5 -7 12 5 24
14 13 16 30 13 74 l-4 57 40 3 c22 1 43 6 46 11 8 13 54 21 68 12 7 -4 12 -14
10 -22 -2 -10 6 -13 27 -11 46 4 58 4 80 0 14 -2 19 2 17 15 -2 11 4 17 18 17
11 0 20 -6 20 -12 0 -10 2 -10 9 0 4 8 12 14 17 13 5 0 8 7 8 15 -1 8 3 13 10
11 6 -2 10 -14 9 -26 -2 -13 3 -21 12 -21 8 0 15 7 15 15 0 11 11 15 40 15 29
0 40 -4 40 -15 0 -8 7 -15 15 -15 8 0 15 -7 15 -15 0 -8 5 -15 10 -15 6 0 10
-11 10 -25 0 -16 6 -25 15 -25 8 0 15 7 15 15 0 9 10 15 26 15 14 0 23 4 20 8
-2 4 3 8 13 9 24 2 48 -37 30 -48 -10 -6 -10 -13 -1 -34 7 -14 12 -36 12 -49
0 -26 24 -51 40 -41 5 3 10 16 10 27 0 17 5 14 30 -17 30 -37 40 -62 20 -50
-14 9 -13 -8 2 -23 19 -19 38 -14 38 11 1 17 2 19 9 7 5 -8 11 -27 15 -42 5
-21 3 -28 -9 -28 -9 0 -15 -9 -15 -25 0 -53 41 -14 58 54 6 25 9 49 6 53 -3 5
-7 26 -9 47 -2 22 -15 64 -29 93 -14 30 -26 65 -26 76 0 12 -4 22 -10 22 -5 0
-10 6 -10 14 0 29 -143 243 -179 268 -45 32 -161 146 -161 159 0 8 -10 15 -22
15 -24 1 -90 25 -98 35 -3 4 -16 9 -30 13 -14 4 -34 11 -45 16 -83 34 -324 49
-415 26z m-463 -1238 c-2 -13 -4 -5 -4 17 -1 22 1 32 4 23 2 -10 2 -28 0 -40z"/>
<path d="M8400 5530 c0 -5 5 -10 10 -10 6 0 10 5 10 10 0 6 -4 10 -10 10 -5 0
-10 -4 -10 -10z"/>
<path d="M7832 5380 c0 -19 2 -27 5 -17 2 9 2 25 0 35 -3 9 -5 1 -5 -18z"/>
<path d="M6760 5212 c0 -14 11 -21 26 -15 21 8 17 23 -6 23 -11 0 -20 -4 -20
-8z"/>
<path d="M6545 4810 c3 -5 8 -10 11 -10 2 0 4 5 4 10 0 6 -5 10 -11 10 -5 0
-7 -4 -4 -10z"/>
<path d="M5780 4571 c0 -6 5 -13 10 -16 6 -3 10 1 10 9 0 9 -4 16 -10 16 -5 0
-10 -4 -10 -9z"/>
<path d="M5825 4481 c-3 -5 -1 -12 5 -16 5 -3 10 1 10 9 0 18 -6 21 -15 7z"/>
<path d="M5861 4454 c0 -11 3 -14 6 -6 3 7 2 16 -1 19 -3 4 -6 -2 -5 -13z"/>
<path d="M7107 4173 c-26 -25 21 -53 71 -42 38 8 49 16 37 27 -4 4 -10 2 -12
-5 -3 -8 -11 -5 -24 8 -19 19 -59 26 -72 12z"/>
<path d="M6953 3229 c4 -12 0 -15 -18 -12 -18 4 -22 1 -20 -19 1 -12 3 -29 4
-37 1 -8 7 -11 19 -6 9 4 23 8 30 8 16 0 15 26 -4 57 -8 14 -13 18 -11 9z"/>
<path d="M6784 3192 c-18 -12 -24 -52 -8 -52 8 0 14 6 15 13 0 6 4 3 9 -8 7
-18 8 -19 15 -2 4 9 13 17 21 17 20 0 17 18 -5 30 -23 12 -32 12 -47 2z"/>
<path d="M5236 5537 c3 -10 9 -15 12 -12 3 3 0 11 -7 18 -10 9 -11 8 -5 -6z"/>
<path d="M5260 5501 c0 -11 -6 -22 -12 -24 -10 -4 -10 -7 0 -15 9 -6 12 -21 8
-48 -6 -35 -5 -37 5 -14 7 14 11 30 10 35 -2 6 -3 27 -3 48 1 20 -1 37 -4 37
-2 0 -4 -9 -4 -19z"/>
<path d="M8862 4500 c0 -14 2 -19 5 -12 2 6 2 18 0 25 -3 6 -5 1 -5 -13z"/>
</g>
</svg>
